<mxfile host="app.diagrams.net" modified="2021-12-15T14:20:00.007Z" agent="5.0 (X11)" etag="G65yj3w9fXYRTlodLT5a" version="15.9.6" type="github" pages="5">
  <diagram id="hU3Crsp0at5dk4Cbi-RW" name="overview">
    <mxGraphModel dx="1694" dy="478" grid="1" gridSize="10" guides="1" tooltips="1" connect="1" arrows="1" fold="1" page="1" pageScale="1" pageWidth="850" pageHeight="1100" math="0" shadow="0">
      <root>
        <mxCell id="PnU1q27nykXc_jp5YoJ4-0" />
        <mxCell id="PnU1q27nykXc_jp5YoJ4-1" parent="PnU1q27nykXc_jp5YoJ4-0" />
        <mxCell id="YPrrnnjl8d6ws6GrDpvN-0" value="&lt;b&gt;Gateway&lt;/b&gt;" style="rounded=0;whiteSpace=wrap;html=1;sketch=0;fontColor=#143642;strokeColor=#0F8B8D;fillColor=#FAE5C7;opacity=50;verticalAlign=top;" vertex="1" parent="PnU1q27nykXc_jp5YoJ4-1">
          <mxGeometry x="-585" y="240" width="320" height="160" as="geometry" />
        </mxCell>
        <mxCell id="YPrrnnjl8d6ws6GrDpvN-25" style="edgeStyle=orthogonalEdgeStyle;rounded=1;orthogonalLoop=1;jettySize=auto;html=1;exitX=0;exitY=0.5;exitDx=0;exitDy=0;entryX=0.75;entryY=1;entryDx=0;entryDy=0;strokeColor=#A8201A;" edge="1" parent="PnU1q27nykXc_jp5YoJ4-1" source="YPrrnnjl8d6ws6GrDpvN-2" target="YPrrnnjl8d6ws6GrDpvN-5">
          <mxGeometry relative="1" as="geometry" />
        </mxCell>
        <mxCell id="YPrrnnjl8d6ws6GrDpvN-26" style="edgeStyle=orthogonalEdgeStyle;rounded=1;orthogonalLoop=1;jettySize=auto;html=1;exitX=0;exitY=0.75;exitDx=0;exitDy=0;entryX=0.75;entryY=1;entryDx=0;entryDy=0;strokeColor=#A8201A;" edge="1" parent="PnU1q27nykXc_jp5YoJ4-1" source="YPrrnnjl8d6ws6GrDpvN-2" target="YPrrnnjl8d6ws6GrDpvN-17">
          <mxGeometry relative="1" as="geometry" />
        </mxCell>
        <mxCell id="YPrrnnjl8d6ws6GrDpvN-2" value="&lt;b&gt;tLoraSend&lt;/b&gt;" style="shape=process;whiteSpace=wrap;html=1;backgroundOutline=1;rounded=0;sketch=0;fontColor=#143642;strokeColor=#0F8B8D;fillColor=#FAE5C7;fontStyle=2" vertex="1" parent="PnU1q27nykXc_jp5YoJ4-1">
          <mxGeometry x="-575" y="270" width="120" height="40" as="geometry" />
        </mxCell>
        <mxCell id="YPrrnnjl8d6ws6GrDpvN-6" style="edgeStyle=orthogonalEdgeStyle;rounded=1;orthogonalLoop=1;jettySize=auto;html=1;exitX=1;exitY=0.5;exitDx=0;exitDy=0;entryX=0;entryY=0.5;entryDx=0;entryDy=0;strokeColor=#A8201A;" edge="1" parent="PnU1q27nykXc_jp5YoJ4-1" source="YPrrnnjl8d6ws6GrDpvN-7" target="YPrrnnjl8d6ws6GrDpvN-9">
          <mxGeometry relative="1" as="geometry" />
        </mxCell>
        <mxCell id="8VfZSG24FfEn6jUBl_r9-1" value="msgs_to_rs" style="edgeLabel;html=1;align=center;verticalAlign=middle;resizable=0;points=[];fontSize=8;" vertex="1" connectable="0" parent="YPrrnnjl8d6ws6GrDpvN-6">
          <mxGeometry x="-0.2877" y="2" relative="1" as="geometry">
            <mxPoint x="8" y="2" as="offset" />
          </mxGeometry>
        </mxCell>
        <mxCell id="YPrrnnjl8d6ws6GrDpvN-7" value="&lt;b&gt;tLoraRecv&lt;/b&gt;" style="shape=process;whiteSpace=wrap;html=1;backgroundOutline=1;rounded=0;sketch=0;fontColor=#143642;strokeColor=#0F8B8D;fillColor=#FAE5C7;fontStyle=2" vertex="1" parent="PnU1q27nykXc_jp5YoJ4-1">
          <mxGeometry x="-575" y="340" width="120" height="40" as="geometry" />
        </mxCell>
        <mxCell id="YPrrnnjl8d6ws6GrDpvN-8" style="edgeStyle=orthogonalEdgeStyle;rounded=1;orthogonalLoop=1;jettySize=auto;html=1;exitX=1;exitY=0.5;exitDx=0;exitDy=0;entryX=0;entryY=0.75;entryDx=0;entryDy=0;strokeColor=#A8201A;" edge="1" parent="PnU1q27nykXc_jp5YoJ4-1" source="YPrrnnjl8d6ws6GrDpvN-9" target="YPrrnnjl8d6ws6GrDpvN-14">
          <mxGeometry relative="1" as="geometry" />
        </mxCell>
        <mxCell id="YPrrnnjl8d6ws6GrDpvN-9" value="&lt;b&gt;tTCPSend&lt;/b&gt;" style="shape=process;whiteSpace=wrap;html=1;backgroundOutline=1;rounded=0;sketch=0;fontColor=#143642;strokeColor=#0F8B8D;fillColor=#FAE5C7;fontStyle=2" vertex="1" parent="PnU1q27nykXc_jp5YoJ4-1">
          <mxGeometry x="-395" y="340" width="120" height="40" as="geometry" />
        </mxCell>
        <mxCell id="YPrrnnjl8d6ws6GrDpvN-10" style="edgeStyle=orthogonalEdgeStyle;rounded=1;orthogonalLoop=1;jettySize=auto;html=1;exitX=0;exitY=0.5;exitDx=0;exitDy=0;entryX=1;entryY=0.5;entryDx=0;entryDy=0;strokeColor=#A8201A;" edge="1" parent="PnU1q27nykXc_jp5YoJ4-1" source="YPrrnnjl8d6ws6GrDpvN-13" target="YPrrnnjl8d6ws6GrDpvN-2">
          <mxGeometry relative="1" as="geometry" />
        </mxCell>
        <mxCell id="8VfZSG24FfEn6jUBl_r9-0" value="msgs_to_ls" style="edgeLabel;html=1;align=center;verticalAlign=middle;resizable=0;points=[];fontSize=8;" vertex="1" connectable="0" parent="YPrrnnjl8d6ws6GrDpvN-10">
          <mxGeometry x="-0.2386" relative="1" as="geometry">
            <mxPoint x="-7" as="offset" />
          </mxGeometry>
        </mxCell>
        <mxCell id="YPrrnnjl8d6ws6GrDpvN-11" style="edgeStyle=orthogonalEdgeStyle;rounded=1;orthogonalLoop=1;jettySize=auto;html=1;exitX=0.013;exitY=0.311;exitDx=0;exitDy=0;entryX=1;entryY=0.5;entryDx=0;entryDy=0;strokeColor=#A8201A;exitPerimeter=0;" edge="1" parent="PnU1q27nykXc_jp5YoJ4-1" source="YPrrnnjl8d6ws6GrDpvN-14" target="YPrrnnjl8d6ws6GrDpvN-13">
          <mxGeometry relative="1" as="geometry" />
        </mxCell>
        <mxCell id="YPrrnnjl8d6ws6GrDpvN-12" value="msg" style="edgeLabel;html=1;align=center;verticalAlign=middle;resizable=0;points=[];fontSize=11;" vertex="1" connectable="0" parent="YPrrnnjl8d6ws6GrDpvN-11">
          <mxGeometry x="-0.1563" y="2" relative="1" as="geometry">
            <mxPoint as="offset" />
          </mxGeometry>
        </mxCell>
        <mxCell id="YPrrnnjl8d6ws6GrDpvN-13" value="&lt;b&gt;tTCPRecv&lt;/b&gt;" style="shape=process;whiteSpace=wrap;html=1;backgroundOutline=1;rounded=0;sketch=0;fontColor=#143642;strokeColor=#0F8B8D;fillColor=#FAE5C7;fontStyle=2" vertex="1" parent="PnU1q27nykXc_jp5YoJ4-1">
          <mxGeometry x="-395" y="270" width="120" height="40" as="geometry" />
        </mxCell>
        <mxCell id="YPrrnnjl8d6ws6GrDpvN-14" value="Remote Server" style="rounded=0;whiteSpace=wrap;html=1;sketch=0;fontColor=#143642;strokeColor=#0F8B8D;fillColor=#FAE5C7;fontStyle=1" vertex="1" parent="PnU1q27nykXc_jp5YoJ4-1">
          <mxGeometry x="-185" y="240" width="125" height="160" as="geometry" />
        </mxCell>
        <mxCell id="YPrrnnjl8d6ws6GrDpvN-27" style="edgeStyle=orthogonalEdgeStyle;rounded=1;orthogonalLoop=1;jettySize=auto;html=1;exitX=0.25;exitY=1;exitDx=0;exitDy=0;entryX=0;entryY=0.5;entryDx=0;entryDy=0;strokeColor=#A8201A;" edge="1" parent="PnU1q27nykXc_jp5YoJ4-1" source="YPrrnnjl8d6ws6GrDpvN-5" target="YPrrnnjl8d6ws6GrDpvN-7">
          <mxGeometry relative="1" as="geometry" />
        </mxCell>
        <mxCell id="YPrrnnjl8d6ws6GrDpvN-5" value="LS" style="rounded=0;whiteSpace=wrap;html=1;sketch=0;fontColor=#143642;strokeColor=#0F8B8D;fillColor=#FAE5C7;fontStyle=1" vertex="1" parent="PnU1q27nykXc_jp5YoJ4-1">
          <mxGeometry x="-690" y="220" width="50" height="50" as="geometry" />
        </mxCell>
        <mxCell id="YPrrnnjl8d6ws6GrDpvN-28" style="edgeStyle=orthogonalEdgeStyle;rounded=1;orthogonalLoop=1;jettySize=auto;html=1;exitX=0.25;exitY=1;exitDx=0;exitDy=0;entryX=0;entryY=0.75;entryDx=0;entryDy=0;strokeColor=#A8201A;" edge="1" parent="PnU1q27nykXc_jp5YoJ4-1" source="YPrrnnjl8d6ws6GrDpvN-17" target="YPrrnnjl8d6ws6GrDpvN-7">
          <mxGeometry relative="1" as="geometry" />
        </mxCell>
        <mxCell id="YPrrnnjl8d6ws6GrDpvN-17" value="LS" style="rounded=0;whiteSpace=wrap;html=1;sketch=0;fontColor=#143642;strokeColor=#0F8B8D;fillColor=#FAE5C7;fontStyle=1" vertex="1" parent="PnU1q27nykXc_jp5YoJ4-1">
          <mxGeometry x="-760" y="220" width="50" height="50" as="geometry" />
        </mxCell>
        <mxCell id="YPrrnnjl8d6ws6GrDpvN-18" value="..." style="rounded=0;whiteSpace=wrap;html=1;sketch=0;fontColor=#143642;strokeColor=#0F8B8D;fillColor=#FAE5C7;fontStyle=1" vertex="1" parent="PnU1q27nykXc_jp5YoJ4-1">
          <mxGeometry x="-830" y="220" width="50" height="50" as="geometry" />
        </mxCell>
        <mxCell id="YPrrnnjl8d6ws6GrDpvN-30" value="msg" style="text;html=1;align=center;verticalAlign=middle;resizable=0;points=[];autosize=1;strokeColor=none;fillColor=none;fontSize=11;" vertex="1" parent="PnU1q27nykXc_jp5YoJ4-1">
          <mxGeometry x="-670" y="355" width="40" height="20" as="geometry" />
        </mxCell>
        <mxCell id="YPrrnnjl8d6ws6GrDpvN-32" value="msg" style="text;html=1;align=center;verticalAlign=middle;resizable=0;points=[];autosize=1;strokeColor=none;fillColor=none;fontSize=11;" vertex="1" parent="PnU1q27nykXc_jp5YoJ4-1">
          <mxGeometry x="-640" y="286" width="40" height="20" as="geometry" />
        </mxCell>
        <mxCell id="YPrrnnjl8d6ws6GrDpvN-34" value="Tx" style="rounded=0;whiteSpace=wrap;html=1;sketch=0;fontColor=#143642;strokeColor=#0F8B8D;fillColor=#FAE5C7;fontSize=7;fontStyle=2" vertex="1" parent="PnU1q27nykXc_jp5YoJ4-1">
          <mxGeometry x="-760" y="260" width="20" height="10" as="geometry" />
        </mxCell>
        <mxCell id="YPrrnnjl8d6ws6GrDpvN-35" value="Rx" style="rounded=0;whiteSpace=wrap;html=1;sketch=0;fontColor=#143642;strokeColor=#0F8B8D;fillColor=#FAE5C7;fontSize=7;fontStyle=2" vertex="1" parent="PnU1q27nykXc_jp5YoJ4-1">
          <mxGeometry x="-730" y="260" width="20" height="10" as="geometry" />
        </mxCell>
        <mxCell id="YPrrnnjl8d6ws6GrDpvN-36" value="Tx" style="rounded=0;whiteSpace=wrap;html=1;sketch=0;fontColor=#143642;strokeColor=#0F8B8D;fillColor=#FAE5C7;fontSize=7;fontStyle=2" vertex="1" parent="PnU1q27nykXc_jp5YoJ4-1">
          <mxGeometry x="-690" y="260" width="20" height="10" as="geometry" />
        </mxCell>
        <mxCell id="YPrrnnjl8d6ws6GrDpvN-37" value="Rx" style="rounded=0;whiteSpace=wrap;html=1;sketch=0;fontColor=#143642;strokeColor=#0F8B8D;fillColor=#FAE5C7;fontSize=7;fontStyle=2" vertex="1" parent="PnU1q27nykXc_jp5YoJ4-1">
          <mxGeometry x="-660" y="260" width="20" height="10" as="geometry" />
        </mxCell>
      </root>
    </mxGraphModel>
  </diagram>
  <diagram id="TLqHFbHVii9wfgOhhn27" name="tLoraSend">
    <mxGraphModel dx="1975" dy="637" grid="1" gridSize="10" guides="1" tooltips="1" connect="1" arrows="1" fold="1" page="1" pageScale="1" pageWidth="850" pageHeight="1100" math="0" shadow="0">
      <root>
        <mxCell id="0" />
        <mxCell id="1" parent="0" />
        <mxCell id="4cotF8SrasmoBFgPKpjG-2" style="edgeStyle=orthogonalEdgeStyle;curved=0;rounded=1;sketch=0;orthogonalLoop=1;jettySize=auto;html=1;exitX=0.5;exitY=1;exitDx=0;exitDy=0;entryX=0.5;entryY=0;entryDx=0;entryDy=0;fontColor=#143642;strokeColor=#A8201A;fillColor=#FAE5C7;" edge="1" parent="1" source="4cotF8SrasmoBFgPKpjG-3" target="4cotF8SrasmoBFgPKpjG-5">
          <mxGeometry relative="1" as="geometry" />
        </mxCell>
        <mxCell id="4cotF8SrasmoBFgPKpjG-3" value="tLoraSend" style="ellipse;whiteSpace=wrap;html=1;fillColor=#FAE5C7;strokeColor=#0F8B8D;fontColor=#143642;fontStyle=1" vertex="1" parent="1">
          <mxGeometry x="-488" width="125.5" height="50" as="geometry" />
        </mxCell>
        <mxCell id="4cotF8SrasmoBFgPKpjG-4" style="edgeStyle=orthogonalEdgeStyle;curved=0;rounded=1;sketch=0;orthogonalLoop=1;jettySize=auto;html=1;exitX=0.5;exitY=1;exitDx=0;exitDy=0;entryX=0.5;entryY=0;entryDx=0;entryDy=0;fontColor=#143642;strokeColor=#A8201A;fillColor=#FAE5C7;" edge="1" parent="1" source="4cotF8SrasmoBFgPKpjG-5" target="4cotF8SrasmoBFgPKpjG-7">
          <mxGeometry relative="1" as="geometry" />
        </mxCell>
        <mxCell id="4cotF8SrasmoBFgPKpjG-5" value="" style="ellipse;whiteSpace=wrap;html=1;aspect=fixed;rounded=0;sketch=0;fontColor=#143642;strokeColor=#0F8B8D;fillColor=#FAE5C7;" vertex="1" parent="1">
          <mxGeometry x="-435.25" y="70" width="20" height="20" as="geometry" />
        </mxCell>
        <mxCell id="4cotF8SrasmoBFgPKpjG-6" style="edgeStyle=orthogonalEdgeStyle;curved=0;rounded=1;sketch=0;orthogonalLoop=1;jettySize=auto;html=1;exitX=0.5;exitY=1;exitDx=0;exitDy=0;entryX=0.5;entryY=0;entryDx=0;entryDy=0;fontColor=#143642;strokeColor=#A8201A;fillColor=#FAE5C7;" edge="1" parent="1" source="4cotF8SrasmoBFgPKpjG-7" target="4cotF8SrasmoBFgPKpjG-22">
          <mxGeometry relative="1" as="geometry" />
        </mxCell>
        <mxCell id="4cotF8SrasmoBFgPKpjG-7" value="&lt;b&gt;Lock&lt;/b&gt; &lt;i&gt;mutLoraSend&lt;/i&gt;" style="rounded=0;whiteSpace=wrap;html=1;sketch=0;fontColor=#143642;strokeColor=#0F8B8D;fillColor=#FAE5C7;" vertex="1" parent="1">
          <mxGeometry x="-500" y="110" width="150" height="40" as="geometry" />
        </mxCell>
        <mxCell id="4cotF8SrasmoBFgPKpjG-8" value="condLoraSend" style="edgeStyle=orthogonalEdgeStyle;curved=0;rounded=1;sketch=0;orthogonalLoop=1;jettySize=auto;html=1;fontColor=#143642;strokeColor=#A8201A;fillColor=#FAE5C7;entryX=1;entryY=0.5;entryDx=0;entryDy=0;fontStyle=2" edge="1" parent="1" source="4cotF8SrasmoBFgPKpjG-9" target="4cotF8SrasmoBFgPKpjG-24">
          <mxGeometry x="-0.6671" relative="1" as="geometry">
            <mxPoint x="-425.4999999999999" y="349.9999999999999" as="targetPoint" />
            <Array as="points">
              <mxPoint x="-325" y="310" />
            </Array>
            <mxPoint as="offset" />
          </mxGeometry>
        </mxCell>
        <mxCell id="4cotF8SrasmoBFgPKpjG-9" value="&lt;b&gt;Wait&lt;/b&gt; for &lt;i&gt;condLoraSend&lt;/i&gt;" style="rounded=0;whiteSpace=wrap;html=1;sketch=0;fontColor=#143642;strokeColor=#0F8B8D;fillColor=#FAE5C7;" vertex="1" parent="1">
          <mxGeometry x="-400" y="250" width="150" height="40" as="geometry" />
        </mxCell>
        <mxCell id="4cotF8SrasmoBFgPKpjG-10" style="edgeStyle=orthogonalEdgeStyle;curved=0;rounded=1;sketch=0;orthogonalLoop=1;jettySize=auto;html=1;exitX=0.5;exitY=1;exitDx=0;exitDy=0;entryX=1;entryY=0.5;entryDx=0;entryDy=0;fontColor=#143642;strokeColor=#A8201A;fillColor=#FAE5C7;" edge="1" parent="1" source="4cotF8SrasmoBFgPKpjG-11" target="4cotF8SrasmoBFgPKpjG-5">
          <mxGeometry relative="1" as="geometry">
            <Array as="points">
              <mxPoint x="-425" y="640" />
              <mxPoint x="-230" y="640" />
              <mxPoint x="-230" y="80" />
            </Array>
          </mxGeometry>
        </mxCell>
        <mxCell id="4cotF8SrasmoBFgPKpjG-11" value="&lt;b&gt;Unlock&lt;/b&gt; &lt;i&gt;mutLoraSend&lt;/i&gt;" style="rounded=0;whiteSpace=wrap;html=1;sketch=0;fontColor=#143642;strokeColor=#0F8B8D;fillColor=#FAE5C7;" vertex="1" parent="1">
          <mxGeometry x="-500.38" y="590" width="150" height="40" as="geometry" />
        </mxCell>
        <mxCell id="4cotF8SrasmoBFgPKpjG-12" value="" style="edgeStyle=orthogonalEdgeStyle;curved=0;rounded=1;sketch=0;orthogonalLoop=1;jettySize=auto;html=1;fontColor=#143642;strokeColor=#A8201A;fillColor=#FAE5C7;" edge="1" parent="1" source="4cotF8SrasmoBFgPKpjG-13" target="4cotF8SrasmoBFgPKpjG-28">
          <mxGeometry relative="1" as="geometry" />
        </mxCell>
        <mxCell id="4cotF8SrasmoBFgPKpjG-13" value="&lt;b&gt;Lock&lt;/b&gt; &lt;i&gt;mutLoraComm&lt;/i&gt;" style="rounded=0;whiteSpace=wrap;html=1;sketch=0;fontColor=#143642;strokeColor=#0F8B8D;fillColor=#FAE5C7;" vertex="1" parent="1">
          <mxGeometry x="-500" y="350" width="150" height="40" as="geometry" />
        </mxCell>
        <mxCell id="4cotF8SrasmoBFgPKpjG-14" value="" style="edgeStyle=orthogonalEdgeStyle;rounded=1;sketch=0;orthogonalLoop=1;jettySize=auto;html=1;fontColor=#143642;strokeColor=#A8201A;fillColor=#FAE5C7;" edge="1" parent="1" source="4cotF8SrasmoBFgPKpjG-15" target="4cotF8SrasmoBFgPKpjG-17">
          <mxGeometry relative="1" as="geometry" />
        </mxCell>
        <mxCell id="4cotF8SrasmoBFgPKpjG-15" value="&lt;b&gt;LoraSend&lt;/b&gt;(&lt;i&gt;msg&lt;/i&gt;)" style="shape=process;whiteSpace=wrap;html=1;backgroundOutline=1;rounded=0;sketch=0;fontColor=#143642;strokeColor=#0F8B8D;fillColor=#FAE5C7;" vertex="1" parent="1">
          <mxGeometry x="-500.38" y="470" width="150" height="40" as="geometry" />
        </mxCell>
        <mxCell id="4cotF8SrasmoBFgPKpjG-16" value="" style="edgeStyle=orthogonalEdgeStyle;rounded=1;sketch=0;orthogonalLoop=1;jettySize=auto;html=1;fontColor=#143642;strokeColor=#A8201A;fillColor=#FAE5C7;" edge="1" parent="1" source="4cotF8SrasmoBFgPKpjG-17" target="4cotF8SrasmoBFgPKpjG-11">
          <mxGeometry relative="1" as="geometry" />
        </mxCell>
        <mxCell id="4cotF8SrasmoBFgPKpjG-17" value="&lt;b&gt;Unlock&lt;/b&gt; &lt;i&gt;mutLoraComm&lt;/i&gt;" style="rounded=0;whiteSpace=wrap;html=1;sketch=0;fontColor=#143642;strokeColor=#0F8B8D;fillColor=#FAE5C7;" vertex="1" parent="1">
          <mxGeometry x="-500" y="530" width="150" height="40" as="geometry" />
        </mxCell>
        <mxCell id="4cotF8SrasmoBFgPKpjG-18" style="edgeStyle=orthogonalEdgeStyle;curved=0;rounded=1;sketch=0;orthogonalLoop=1;jettySize=auto;html=1;exitX=0;exitY=0.5;exitDx=0;exitDy=0;fontColor=#143642;strokeColor=#A8201A;fillColor=#FAE5C7;entryX=0;entryY=0.5;entryDx=0;entryDy=0;" edge="1" parent="1" source="4cotF8SrasmoBFgPKpjG-22" target="4cotF8SrasmoBFgPKpjG-24">
          <mxGeometry relative="1" as="geometry">
            <mxPoint x="-430" y="339.9999999999999" as="targetPoint" />
            <Array as="points">
              <mxPoint x="-520" y="210" />
              <mxPoint x="-520" y="310" />
            </Array>
          </mxGeometry>
        </mxCell>
        <mxCell id="4cotF8SrasmoBFgPKpjG-19" value="No" style="edgeLabel;html=1;align=center;verticalAlign=middle;resizable=0;points=[];fontColor=#143642;" vertex="1" connectable="0" parent="4cotF8SrasmoBFgPKpjG-18">
          <mxGeometry x="-0.8786" relative="1" as="geometry">
            <mxPoint as="offset" />
          </mxGeometry>
        </mxCell>
        <mxCell id="4cotF8SrasmoBFgPKpjG-20" style="edgeStyle=orthogonalEdgeStyle;curved=0;rounded=1;sketch=0;orthogonalLoop=1;jettySize=auto;html=1;exitX=1;exitY=0.5;exitDx=0;exitDy=0;entryX=0.5;entryY=0;entryDx=0;entryDy=0;fontColor=#143642;strokeColor=#A8201A;fillColor=#FAE5C7;" edge="1" parent="1" source="4cotF8SrasmoBFgPKpjG-22" target="4cotF8SrasmoBFgPKpjG-9">
          <mxGeometry relative="1" as="geometry" />
        </mxCell>
        <mxCell id="4cotF8SrasmoBFgPKpjG-21" value="Yes" style="edgeLabel;html=1;align=center;verticalAlign=middle;resizable=0;points=[];fontColor=#143642;" vertex="1" connectable="0" parent="4cotF8SrasmoBFgPKpjG-20">
          <mxGeometry x="-0.7996" y="-1" relative="1" as="geometry">
            <mxPoint as="offset" />
          </mxGeometry>
        </mxCell>
        <mxCell id="4cotF8SrasmoBFgPKpjG-22" value="&lt;div&gt;Is &lt;i&gt;&lt;br&gt;&lt;/i&gt;&lt;/div&gt;&lt;div&gt;&lt;i&gt;msgs_to_ls&lt;/i&gt; empty?&lt;/div&gt;" style="rhombus;whiteSpace=wrap;html=1;rounded=0;sketch=0;fontColor=#143642;strokeColor=#0F8B8D;fillColor=#FAE5C7;" vertex="1" parent="1">
          <mxGeometry x="-468" y="170" width="85.5" height="80" as="geometry" />
        </mxCell>
        <mxCell id="4cotF8SrasmoBFgPKpjG-23" style="edgeStyle=orthogonalEdgeStyle;curved=0;rounded=1;sketch=0;orthogonalLoop=1;jettySize=auto;html=1;exitX=0.5;exitY=1;exitDx=0;exitDy=0;entryX=0.5;entryY=0;entryDx=0;entryDy=0;fontColor=#143642;strokeColor=#A8201A;fillColor=#FAE5C7;" edge="1" parent="1" source="4cotF8SrasmoBFgPKpjG-24" target="4cotF8SrasmoBFgPKpjG-13">
          <mxGeometry relative="1" as="geometry" />
        </mxCell>
        <mxCell id="4cotF8SrasmoBFgPKpjG-24" value="" style="ellipse;whiteSpace=wrap;html=1;aspect=fixed;rounded=0;sketch=0;fontColor=#143642;strokeColor=#0F8B8D;fillColor=#FAE5C7;" vertex="1" parent="1">
          <mxGeometry x="-435" y="300" width="20" height="20" as="geometry" />
        </mxCell>
        <mxCell id="4cotF8SrasmoBFgPKpjG-25" value="Continue to send queued messages" style="shape=note;whiteSpace=wrap;html=1;backgroundOutline=1;darkOpacity=0.05;rounded=0;sketch=0;fontColor=#143642;strokeColor=#0F8B8D;fillColor=#FAE5C7;size=15;fontSize=11;" vertex="1" parent="1">
          <mxGeometry x="-650" y="190" width="100" height="50" as="geometry" />
        </mxCell>
        <mxCell id="4cotF8SrasmoBFgPKpjG-26" value="" style="endArrow=none;dashed=1;html=1;rounded=1;sketch=0;fontColor=#143642;strokeColor=#A8201A;fillColor=#FAE5C7;curved=0;exitX=0;exitY=0;exitDx=100;exitDy=15;exitPerimeter=0;" edge="1" parent="1" source="4cotF8SrasmoBFgPKpjG-25">
          <mxGeometry width="50" height="50" relative="1" as="geometry">
            <mxPoint x="-600" y="300" as="sourcePoint" />
            <mxPoint x="-520" y="220" as="targetPoint" />
          </mxGeometry>
        </mxCell>
        <mxCell id="4cotF8SrasmoBFgPKpjG-27" style="edgeStyle=orthogonalEdgeStyle;curved=0;rounded=1;sketch=0;orthogonalLoop=1;jettySize=auto;html=1;exitX=0.5;exitY=1;exitDx=0;exitDy=0;entryX=0.5;entryY=0;entryDx=0;entryDy=0;fontColor=#143642;strokeColor=#A8201A;fillColor=#FAE5C7;" edge="1" parent="1" source="4cotF8SrasmoBFgPKpjG-28" target="4cotF8SrasmoBFgPKpjG-15">
          <mxGeometry relative="1" as="geometry" />
        </mxCell>
        <mxCell id="4cotF8SrasmoBFgPKpjG-28" value="&lt;div&gt;&lt;b&gt;Pop &lt;/b&gt;&lt;i&gt;msg &lt;/i&gt;from &lt;br&gt;&lt;/div&gt;&lt;div&gt;&lt;i&gt;msgs_to_ls&lt;/i&gt;&lt;/div&gt;" style="rounded=0;whiteSpace=wrap;html=1;sketch=0;fontColor=#143642;strokeColor=#0F8B8D;fillColor=#FAE5C7;" vertex="1" parent="1">
          <mxGeometry x="-500" y="410" width="150" height="40" as="geometry" />
        </mxCell>
      </root>
    </mxGraphModel>
  </diagram>
  <diagram id="B4-RHjur3Gx8364kwEoC" name="tLoraRecv">
    <mxGraphModel dx="1975" dy="637" grid="1" gridSize="10" guides="1" tooltips="1" connect="1" arrows="1" fold="1" page="1" pageScale="1" pageWidth="850" pageHeight="1100" math="0" shadow="0">
      <root>
        <mxCell id="PoD1HCVpUjz8mug3CJSm-0" />
        <mxCell id="PoD1HCVpUjz8mug3CJSm-1" parent="PoD1HCVpUjz8mug3CJSm-0" />
        <mxCell id="PoD1HCVpUjz8mug3CJSm-2" style="edgeStyle=orthogonalEdgeStyle;curved=0;rounded=1;sketch=0;orthogonalLoop=1;jettySize=auto;html=1;exitX=0.5;exitY=1;exitDx=0;exitDy=0;entryX=0.5;entryY=0;entryDx=0;entryDy=0;fontColor=#143642;strokeColor=#A8201A;fillColor=#FAE5C7;" edge="1" parent="PoD1HCVpUjz8mug3CJSm-1" source="PoD1HCVpUjz8mug3CJSm-3" target="PoD1HCVpUjz8mug3CJSm-5">
          <mxGeometry relative="1" as="geometry" />
        </mxCell>
        <mxCell id="PoD1HCVpUjz8mug3CJSm-3" value="tLoraRecv" style="ellipse;whiteSpace=wrap;html=1;fillColor=#FAE5C7;strokeColor=#0F8B8D;fontColor=#143642;fontStyle=1" vertex="1" parent="PoD1HCVpUjz8mug3CJSm-1">
          <mxGeometry x="-488" y="70" width="125.5" height="50" as="geometry" />
        </mxCell>
        <mxCell id="PoD1HCVpUjz8mug3CJSm-4" style="edgeStyle=orthogonalEdgeStyle;curved=0;rounded=1;sketch=0;orthogonalLoop=1;jettySize=auto;html=1;exitX=0.5;exitY=1;exitDx=0;exitDy=0;entryX=0.5;entryY=0;entryDx=0;entryDy=0;fontColor=#143642;strokeColor=#A8201A;fillColor=#FAE5C7;" edge="1" parent="PoD1HCVpUjz8mug3CJSm-1" source="PoD1HCVpUjz8mug3CJSm-5" target="PoD1HCVpUjz8mug3CJSm-7">
          <mxGeometry relative="1" as="geometry" />
        </mxCell>
        <mxCell id="PoD1HCVpUjz8mug3CJSm-5" value="" style="ellipse;whiteSpace=wrap;html=1;aspect=fixed;rounded=0;sketch=0;fontColor=#143642;strokeColor=#0F8B8D;fillColor=#FAE5C7;" vertex="1" parent="PoD1HCVpUjz8mug3CJSm-1">
          <mxGeometry x="-435" y="160" width="20" height="20" as="geometry" />
        </mxCell>
        <mxCell id="PoD1HCVpUjz8mug3CJSm-6" value="" style="edgeStyle=orthogonalEdgeStyle;curved=0;rounded=1;sketch=0;orthogonalLoop=1;jettySize=auto;html=1;fontColor=#143642;strokeColor=#A8201A;fillColor=#FAE5C7;" edge="1" parent="PoD1HCVpUjz8mug3CJSm-1" source="PoD1HCVpUjz8mug3CJSm-7">
          <mxGeometry relative="1" as="geometry">
            <mxPoint x="-425" y="259.9999999999999" as="targetPoint" />
          </mxGeometry>
        </mxCell>
        <mxCell id="PoD1HCVpUjz8mug3CJSm-7" value="&lt;div&gt;&lt;b&gt;Lock&lt;/b&gt; &lt;i&gt;mutLoraComm&lt;/i&gt;&lt;/div&gt;" style="rounded=0;whiteSpace=wrap;html=1;sketch=0;fontColor=#143642;strokeColor=#0F8B8D;fillColor=#FAE5C7;" vertex="1" parent="PoD1HCVpUjz8mug3CJSm-1">
          <mxGeometry x="-500" y="200" width="150" height="40" as="geometry" />
        </mxCell>
        <mxCell id="PoD1HCVpUjz8mug3CJSm-8" value="Returns &lt;i&gt;message&lt;/i&gt;" style="edgeStyle=orthogonalEdgeStyle;curved=0;rounded=1;sketch=0;orthogonalLoop=1;jettySize=auto;html=1;fontColor=#143642;strokeColor=#A8201A;fillColor=#FAE5C7;entryX=0.5;entryY=0;entryDx=0;entryDy=0;" edge="1" parent="PoD1HCVpUjz8mug3CJSm-1" target="PoD1HCVpUjz8mug3CJSm-14">
          <mxGeometry relative="1" as="geometry">
            <mxPoint x="-425" y="300" as="sourcePoint" />
            <mxPoint x="-425.4999999999999" y="349.9999999999999" as="targetPoint" />
          </mxGeometry>
        </mxCell>
        <mxCell id="PoD1HCVpUjz8mug3CJSm-9" style="edgeStyle=orthogonalEdgeStyle;rounded=1;sketch=0;orthogonalLoop=1;jettySize=auto;html=1;entryX=0;entryY=0.5;entryDx=0;entryDy=0;fontColor=#143642;strokeColor=#A8201A;fillColor=#FAE5C7;exitX=0.5;exitY=1;exitDx=0;exitDy=0;" edge="1" parent="PoD1HCVpUjz8mug3CJSm-1" source="TtrFznFtgx-CofSagvRl-4" target="PoD1HCVpUjz8mug3CJSm-5">
          <mxGeometry relative="1" as="geometry">
            <Array as="points">
              <mxPoint x="-425" y="770" />
              <mxPoint x="-570" y="770" />
              <mxPoint x="-570" y="170" />
            </Array>
            <mxPoint x="-425" y="750" as="sourcePoint" />
          </mxGeometry>
        </mxCell>
        <mxCell id="PoD1HCVpUjz8mug3CJSm-11" style="edgeStyle=orthogonalEdgeStyle;curved=0;rounded=1;sketch=0;orthogonalLoop=1;jettySize=auto;html=1;exitX=1;exitY=0.5;exitDx=0;exitDy=0;entryX=1;entryY=0.5;entryDx=0;entryDy=0;fontColor=#143642;strokeColor=#A8201A;fillColor=#FAE5C7;" edge="1" parent="PoD1HCVpUjz8mug3CJSm-1" source="PoD1HCVpUjz8mug3CJSm-20" target="PoD1HCVpUjz8mug3CJSm-5">
          <mxGeometry relative="1" as="geometry">
            <mxPoint x="-382.7500000000001" y="660" as="sourcePoint" />
            <Array as="points">
              <mxPoint x="-310" y="455" />
              <mxPoint x="-310" y="170" />
            </Array>
          </mxGeometry>
        </mxCell>
        <mxCell id="PoD1HCVpUjz8mug3CJSm-12" value="No" style="edgeLabel;html=1;align=center;verticalAlign=middle;resizable=0;points=[];fontColor=#143642;" vertex="1" connectable="0" parent="PoD1HCVpUjz8mug3CJSm-11">
          <mxGeometry x="-0.9582" y="2" relative="1" as="geometry">
            <mxPoint as="offset" />
          </mxGeometry>
        </mxCell>
        <mxCell id="PoD1HCVpUjz8mug3CJSm-13" value="" style="edgeStyle=orthogonalEdgeStyle;rounded=1;sketch=0;orthogonalLoop=1;jettySize=auto;html=1;fontColor=#143642;strokeColor=#A8201A;fillColor=#FAE5C7;" edge="1" parent="PoD1HCVpUjz8mug3CJSm-1" source="PoD1HCVpUjz8mug3CJSm-14" target="PoD1HCVpUjz8mug3CJSm-20">
          <mxGeometry relative="1" as="geometry" />
        </mxCell>
        <mxCell id="PoD1HCVpUjz8mug3CJSm-14" value="&lt;b&gt;Unlock&lt;/b&gt; &lt;i&gt;mutLoraComm&lt;/i&gt;" style="rounded=0;whiteSpace=wrap;html=1;sketch=0;fontColor=#143642;strokeColor=#0F8B8D;fillColor=#FAE5C7;" vertex="1" parent="PoD1HCVpUjz8mug3CJSm-1">
          <mxGeometry x="-500.25" y="350" width="150" height="40" as="geometry" />
        </mxCell>
        <mxCell id="PoD1HCVpUjz8mug3CJSm-15" value="&lt;b&gt;LoraReceive()&lt;/b&gt;" style="shape=process;whiteSpace=wrap;html=1;backgroundOutline=1;rounded=0;sketch=0;fontColor=#143642;strokeColor=#0F8B8D;fillColor=#FAE5C7;" vertex="1" parent="PoD1HCVpUjz8mug3CJSm-1">
          <mxGeometry x="-500" y="260" width="150" height="40" as="geometry" />
        </mxCell>
        <mxCell id="PoD1HCVpUjz8mug3CJSm-18" style="edgeStyle=orthogonalEdgeStyle;sketch=0;orthogonalLoop=1;jettySize=auto;html=1;exitX=0;exitY=0.5;exitDx=0;exitDy=0;entryX=0.5;entryY=0;entryDx=0;entryDy=0;fontColor=#143642;strokeColor=#A8201A;fillColor=#FAE5C7;rounded=1;" edge="1" parent="PoD1HCVpUjz8mug3CJSm-1" source="PoD1HCVpUjz8mug3CJSm-20">
          <mxGeometry relative="1" as="geometry">
            <Array as="points">
              <mxPoint x="-520" y="455" />
              <mxPoint x="-520" y="520" />
              <mxPoint x="-425" y="520" />
            </Array>
            <mxPoint x="-425.25" y="540" as="targetPoint" />
          </mxGeometry>
        </mxCell>
        <mxCell id="PoD1HCVpUjz8mug3CJSm-19" value="Yes" style="edgeLabel;html=1;align=center;verticalAlign=middle;resizable=0;points=[];fontColor=#143642;" vertex="1" connectable="0" parent="PoD1HCVpUjz8mug3CJSm-18">
          <mxGeometry x="-0.9088" y="-1" relative="1" as="geometry">
            <mxPoint as="offset" />
          </mxGeometry>
        </mxCell>
        <mxCell id="PoD1HCVpUjz8mug3CJSm-20" value="&lt;div&gt;&lt;i&gt;message&lt;/i&gt; was&lt;/div&gt;&lt;div&gt;received?&lt;br&gt;&lt;/div&gt;" style="rhombus;whiteSpace=wrap;html=1;rounded=0;sketch=0;fontColor=#143642;strokeColor=#0F8B8D;fillColor=#FAE5C7;" vertex="1" parent="PoD1HCVpUjz8mug3CJSm-1">
          <mxGeometry x="-474.25" y="410" width="98" height="90" as="geometry" />
        </mxCell>
        <mxCell id="TtrFznFtgx-CofSagvRl-3" style="edgeStyle=orthogonalEdgeStyle;rounded=1;orthogonalLoop=1;jettySize=auto;html=1;exitX=0.5;exitY=1;exitDx=0;exitDy=0;entryX=0.5;entryY=0;entryDx=0;entryDy=0;fontSize=11;strokeColor=#A8201A;" edge="1" parent="PoD1HCVpUjz8mug3CJSm-1" source="Frhw5YvgYfWrY-1gdiqT-0" target="SkAqjF2Zt-hcUV3IPjEI-0">
          <mxGeometry relative="1" as="geometry" />
        </mxCell>
        <mxCell id="Frhw5YvgYfWrY-1gdiqT-0" value="&lt;div&gt;&lt;b&gt;Push &lt;/b&gt;&lt;i&gt;msg &lt;/i&gt;to&lt;/div&gt;&lt;div&gt;&lt;i&gt;msgs_to_rs&lt;/i&gt;&lt;/div&gt;" style="rounded=0;whiteSpace=wrap;html=1;sketch=0;fontColor=#143642;strokeColor=#0F8B8D;fillColor=#FAE5C7;" vertex="1" parent="PoD1HCVpUjz8mug3CJSm-1">
          <mxGeometry x="-500.25" y="600" width="150" height="40" as="geometry" />
        </mxCell>
        <mxCell id="TtrFznFtgx-CofSagvRl-5" style="edgeStyle=orthogonalEdgeStyle;rounded=1;orthogonalLoop=1;jettySize=auto;html=1;exitX=0.5;exitY=1;exitDx=0;exitDy=0;entryX=0.5;entryY=0;entryDx=0;entryDy=0;fontSize=11;strokeColor=#A8201A;" edge="1" parent="PoD1HCVpUjz8mug3CJSm-1" source="SkAqjF2Zt-hcUV3IPjEI-0" target="TtrFznFtgx-CofSagvRl-4">
          <mxGeometry relative="1" as="geometry" />
        </mxCell>
        <mxCell id="SkAqjF2Zt-hcUV3IPjEI-0" value="&lt;b&gt;Signal&lt;/b&gt; &lt;i&gt;condTCPSend&lt;/i&gt;" style="rounded=0;whiteSpace=wrap;html=1;sketch=0;fontColor=#143642;strokeColor=#0F8B8D;fillColor=#FAE5C7;" vertex="1" parent="PoD1HCVpUjz8mug3CJSm-1">
          <mxGeometry x="-500" y="660" width="150" height="40" as="geometry" />
        </mxCell>
        <mxCell id="TtrFznFtgx-CofSagvRl-2" style="edgeStyle=orthogonalEdgeStyle;rounded=1;orthogonalLoop=1;jettySize=auto;html=1;exitX=0.5;exitY=1;exitDx=0;exitDy=0;entryX=0.5;entryY=0;entryDx=0;entryDy=0;fontSize=11;strokeColor=#A8201A;" edge="1" parent="PoD1HCVpUjz8mug3CJSm-1" source="TtrFznFtgx-CofSagvRl-0" target="Frhw5YvgYfWrY-1gdiqT-0">
          <mxGeometry relative="1" as="geometry" />
        </mxCell>
        <mxCell id="TtrFznFtgx-CofSagvRl-0" value="&lt;b&gt;Lock &lt;/b&gt;&lt;i&gt;mutTCPSend&lt;/i&gt;&lt;br&gt;&lt;b&gt;&lt;/b&gt;" style="rounded=0;whiteSpace=wrap;html=1;sketch=0;fontColor=#143642;strokeColor=#0F8B8D;fillColor=#FAE5C7;" vertex="1" parent="PoD1HCVpUjz8mug3CJSm-1">
          <mxGeometry x="-500.25" y="540" width="150" height="40" as="geometry" />
        </mxCell>
        <mxCell id="TtrFznFtgx-CofSagvRl-4" value="&lt;b&gt;Unlock &lt;/b&gt;&lt;i&gt;mutTCPSend&lt;/i&gt;" style="rounded=0;whiteSpace=wrap;html=1;sketch=0;fontColor=#143642;strokeColor=#0F8B8D;fillColor=#FAE5C7;" vertex="1" parent="PoD1HCVpUjz8mug3CJSm-1">
          <mxGeometry x="-500.25" y="720" width="150" height="40" as="geometry" />
        </mxCell>
      </root>
    </mxGraphModel>
  </diagram>
  <diagram id="VPUfw36PyoCVSN8Vm29U" name="priority">
    <mxGraphModel dx="540" dy="306" grid="1" gridSize="10" guides="1" tooltips="1" connect="1" arrows="1" fold="1" page="1" pageScale="1" pageWidth="850" pageHeight="1100" math="0" shadow="0">
      <root>
        <mxCell id="fgAEIEjEdpctKWsRxZt5-0" />
        <mxCell id="fgAEIEjEdpctKWsRxZt5-1" parent="fgAEIEjEdpctKWsRxZt5-0" />
        <mxCell id="fgAEIEjEdpctKWsRxZt5-11" value="tLoraRecv" style="rounded=1;whiteSpace=wrap;html=1;fillColor=#fff2cc;strokeColor=#d6b656;" vertex="1" parent="fgAEIEjEdpctKWsRxZt5-1">
          <mxGeometry x="190" y="200" width="80" height="30" as="geometry" />
        </mxCell>
        <mxCell id="fgAEIEjEdpctKWsRxZt5-12" value="tLoraSend" style="rounded=1;whiteSpace=wrap;html=1;fillColor=#fff2cc;strokeColor=#d6b656;" vertex="1" parent="fgAEIEjEdpctKWsRxZt5-1">
          <mxGeometry x="190" y="240" width="80" height="30" as="geometry" />
        </mxCell>
        <mxCell id="fgAEIEjEdpctKWsRxZt5-13" value="tIdle" style="rounded=1;whiteSpace=wrap;html=1;fillColor=#e1d5e7;strokeColor=#9673a6;" vertex="1" parent="fgAEIEjEdpctKWsRxZt5-1">
          <mxGeometry x="110" y="280" width="160" height="30" as="geometry" />
        </mxCell>
        <mxCell id="fgAEIEjEdpctKWsRxZt5-14" value="" style="shape=flexArrow;endArrow=classic;html=1;rounded=0;fillColor=#f5f5f5;gradientColor=#b3b3b3;strokeColor=#666666;" edge="1" parent="fgAEIEjEdpctKWsRxZt5-1">
          <mxGeometry width="50" height="50" relative="1" as="geometry">
            <mxPoint x="300" y="310" as="sourcePoint" />
            <mxPoint x="300" y="200" as="targetPoint" />
          </mxGeometry>
        </mxCell>
        <mxCell id="fgAEIEjEdpctKWsRxZt5-15" value="&lt;div&gt;Priority&lt;/div&gt;&lt;div&gt;Level&lt;/div&gt;" style="edgeLabel;html=1;align=center;verticalAlign=middle;resizable=0;points=[];labelBackgroundColor=default;fontStyle=1" vertex="1" connectable="0" parent="fgAEIEjEdpctKWsRxZt5-14">
          <mxGeometry x="0.5393" y="-2" relative="1" as="geometry">
            <mxPoint x="28" y="29" as="offset" />
          </mxGeometry>
        </mxCell>
        <mxCell id="fgAEIEjEdpctKWsRxZt5-16" value="tTCPRecv" style="rounded=1;whiteSpace=wrap;html=1;fillColor=#ffe6cc;strokeColor=#d79b00;" vertex="1" parent="fgAEIEjEdpctKWsRxZt5-1">
          <mxGeometry x="110" y="200" width="80" height="30" as="geometry" />
        </mxCell>
        <mxCell id="fgAEIEjEdpctKWsRxZt5-17" value="tTCPSend" style="rounded=1;whiteSpace=wrap;html=1;fillColor=#ffe6cc;strokeColor=#d79b00;" vertex="1" parent="fgAEIEjEdpctKWsRxZt5-1">
          <mxGeometry x="110" y="240" width="80" height="30" as="geometry" />
        </mxCell>
      </root>
    </mxGraphModel>
  </diagram>
  <diagram id="KB_AYuN2BlL1tNP504BC" name="start-up">
    <mxGraphModel dx="1750" dy="509" grid="1" gridSize="10" guides="1" tooltips="1" connect="1" arrows="1" fold="1" page="1" pageScale="1" pageWidth="850" pageHeight="1100" math="0" shadow="0">
      <root>
        <mxCell id="sXWiS-W7BGuIx0ae2Dth-0" />
        <mxCell id="sXWiS-W7BGuIx0ae2Dth-1" parent="sXWiS-W7BGuIx0ae2Dth-0" />
        <mxCell id="cyF7_fSVK60EGiFeBGHx-0" style="edgeStyle=orthogonalEdgeStyle;curved=0;rounded=1;sketch=0;orthogonalLoop=1;jettySize=auto;html=1;exitX=0.5;exitY=1;exitDx=0;exitDy=0;entryX=0.5;entryY=0;entryDx=0;entryDy=0;fontColor=#143642;strokeColor=#A8201A;fillColor=#FAE5C7;" edge="1" parent="sXWiS-W7BGuIx0ae2Dth-1" source="cyF7_fSVK60EGiFeBGHx-1" target="cyF7_fSVK60EGiFeBGHx-12">
          <mxGeometry relative="1" as="geometry">
            <mxPoint x="-644.5" y="140" as="targetPoint" />
          </mxGeometry>
        </mxCell>
        <mxCell id="cyF7_fSVK60EGiFeBGHx-1" value="Start-Up" style="ellipse;whiteSpace=wrap;html=1;fillColor=#FAE5C7;strokeColor=#0F8B8D;fontColor=#143642;fontStyle=1" vertex="1" parent="sXWiS-W7BGuIx0ae2Dth-1">
          <mxGeometry x="-707.5" y="50" width="125.5" height="50" as="geometry" />
        </mxCell>
        <mxCell id="cyF7_fSVK60EGiFeBGHx-24" style="edgeStyle=orthogonalEdgeStyle;rounded=1;orthogonalLoop=1;jettySize=auto;html=1;exitX=0.5;exitY=1;exitDx=0;exitDy=0;entryX=0.5;entryY=0;entryDx=0;entryDy=0;fontSize=11;strokeColor=#A8201A;" edge="1" parent="sXWiS-W7BGuIx0ae2Dth-1" source="cyF7_fSVK60EGiFeBGHx-12" target="cyF7_fSVK60EGiFeBGHx-23">
          <mxGeometry relative="1" as="geometry" />
        </mxCell>
        <mxCell id="cyF7_fSVK60EGiFeBGHx-12" value="InitTCP-IP " style="shape=process;whiteSpace=wrap;html=1;backgroundOutline=1;rounded=0;sketch=0;fontColor=#143642;strokeColor=#0F8B8D;fillColor=#FAE5C7;fontStyle=1" vertex="1" parent="sXWiS-W7BGuIx0ae2Dth-1">
          <mxGeometry x="-719.5" y="140" width="150" height="30" as="geometry" />
        </mxCell>
        <mxCell id="cyF7_fSVK60EGiFeBGHx-25" style="edgeStyle=orthogonalEdgeStyle;rounded=1;orthogonalLoop=1;jettySize=auto;html=1;exitX=0.5;exitY=1;exitDx=0;exitDy=0;entryX=0.5;entryY=0;entryDx=0;entryDy=0;fontSize=11;strokeColor=#A8201A;" edge="1" parent="sXWiS-W7BGuIx0ae2Dth-1" source="cyF7_fSVK60EGiFeBGHx-23">
          <mxGeometry relative="1" as="geometry">
            <mxPoint x="-644.75" y="240" as="targetPoint" />
          </mxGeometry>
        </mxCell>
        <mxCell id="cyF7_fSVK60EGiFeBGHx-23" value="Create &lt;span style=&quot;font-weight: normal&quot;&gt;Communication&lt;/span&gt;" style="shape=process;whiteSpace=wrap;html=1;backgroundOutline=1;rounded=0;sketch=0;fontColor=#143642;strokeColor=#0F8B8D;fillColor=#FAE5C7;fontStyle=1" vertex="1" parent="sXWiS-W7BGuIx0ae2Dth-1">
          <mxGeometry x="-719.75" y="190" width="150" height="30" as="geometry" />
        </mxCell>
        <mxCell id="cyF7_fSVK60EGiFeBGHx-29" style="edgeStyle=orthogonalEdgeStyle;curved=0;rounded=1;sketch=0;orthogonalLoop=1;jettySize=auto;html=1;exitX=0.5;exitY=1;exitDx=0;exitDy=0;entryX=0.5;entryY=0;entryDx=0;entryDy=0;fontColor=#143642;strokeColor=#A8201A;fillColor=#FAE5C7;" edge="1" parent="sXWiS-W7BGuIx0ae2Dth-1" source="cyF7_fSVK60EGiFeBGHx-30">
          <mxGeometry relative="1" as="geometry">
            <mxPoint x="-464" y="140" as="targetPoint" />
          </mxGeometry>
        </mxCell>
        <mxCell id="cyF7_fSVK60EGiFeBGHx-30" value="InitTCP-IP" style="ellipse;whiteSpace=wrap;html=1;fillColor=#FAE5C7;strokeColor=#0F8B8D;fontColor=#143642;fontStyle=1" vertex="1" parent="sXWiS-W7BGuIx0ae2Dth-1">
          <mxGeometry x="-527" y="50" width="125.5" height="50" as="geometry" />
        </mxCell>
        <mxCell id="cyF7_fSVK60EGiFeBGHx-33" value="Returns &lt;i&gt;sd&lt;/i&gt;" style="edgeStyle=orthogonalEdgeStyle;rounded=1;orthogonalLoop=1;jettySize=auto;html=1;exitX=0.5;exitY=1;exitDx=0;exitDy=0;entryX=0.5;entryY=0;entryDx=0;entryDy=0;fontSize=11;strokeColor=#A8201A;" edge="1" parent="sXWiS-W7BGuIx0ae2Dth-1" target="cyF7_fSVK60EGiFeBGHx-42">
          <mxGeometry relative="1" as="geometry">
            <mxPoint x="-464" y="170" as="sourcePoint" />
            <mxPoint x="-464.25" y="210" as="targetPoint" />
          </mxGeometry>
        </mxCell>
        <mxCell id="cyF7_fSVK60EGiFeBGHx-39" value="end" style="ellipse;whiteSpace=wrap;html=1;fillColor=#FAE5C7;strokeColor=#0F8B8D;fontColor=#143642;fontStyle=1" vertex="1" parent="sXWiS-W7BGuIx0ae2Dth-1">
          <mxGeometry x="-488" y="480" width="48" height="30" as="geometry" />
        </mxCell>
        <mxCell id="cyF7_fSVK60EGiFeBGHx-41" value="socket()" style="shape=process;whiteSpace=wrap;html=1;backgroundOutline=1;rounded=0;sketch=0;fontColor=#143642;strokeColor=#0F8B8D;fillColor=#FAE5C7;fontStyle=1" vertex="1" parent="sXWiS-W7BGuIx0ae2Dth-1">
          <mxGeometry x="-539" y="140" width="150" height="30" as="geometry" />
        </mxCell>
        <mxCell id="1UapbTaZws7WXqEb3hF3-2" style="edgeStyle=orthogonalEdgeStyle;rounded=1;orthogonalLoop=1;jettySize=auto;html=1;exitX=0.5;exitY=1;exitDx=0;exitDy=0;entryX=0.5;entryY=0;entryDx=0;entryDy=0;fontSize=11;strokeColor=#A8201A;" edge="1" parent="sXWiS-W7BGuIx0ae2Dth-1" source="cyF7_fSVK60EGiFeBGHx-42" target="1UapbTaZws7WXqEb3hF3-0">
          <mxGeometry relative="1" as="geometry" />
        </mxCell>
        <mxCell id="cyF7_fSVK60EGiFeBGHx-42" value="Create and initialize socket address" style="rounded=0;whiteSpace=wrap;html=1;sketch=0;fontColor=#143642;strokeColor=#0F8B8D;fillColor=#FAE5C7;" vertex="1" parent="sXWiS-W7BGuIx0ae2Dth-1">
          <mxGeometry x="-539" y="210" width="149.5" height="40" as="geometry" />
        </mxCell>
        <mxCell id="z8JawQCSkCAL8MrwTOAj-2" style="edgeStyle=orthogonalEdgeStyle;rounded=1;orthogonalLoop=1;jettySize=auto;html=1;exitX=0.5;exitY=1;exitDx=0;exitDy=0;entryX=0.5;entryY=0;entryDx=0;entryDy=0;fontSize=11;strokeColor=#A8201A;" edge="1" parent="sXWiS-W7BGuIx0ae2Dth-1" source="cyF7_fSVK60EGiFeBGHx-43" target="z8JawQCSkCAL8MrwTOAj-0">
          <mxGeometry relative="1" as="geometry" />
        </mxCell>
        <mxCell id="cyF7_fSVK60EGiFeBGHx-43" value="connect(&lt;i&gt;&lt;span style=&quot;font-weight: normal&quot;&gt;sd&lt;/span&gt;&lt;/i&gt;)" style="shape=process;whiteSpace=wrap;html=1;backgroundOutline=1;rounded=0;sketch=0;fontColor=#143642;strokeColor=#0F8B8D;fillColor=#FAE5C7;fontStyle=1" vertex="1" parent="sXWiS-W7BGuIx0ae2Dth-1">
          <mxGeometry x="-539.5" y="300" width="150" height="30" as="geometry" />
        </mxCell>
        <mxCell id="z8JawQCSkCAL8MrwTOAj-1" style="edgeStyle=orthogonalEdgeStyle;rounded=1;orthogonalLoop=1;jettySize=auto;html=1;exitX=0;exitY=0.5;exitDx=0;exitDy=0;entryX=0.5;entryY=0;entryDx=0;entryDy=0;fontSize=11;strokeColor=#A8201A;" edge="1" parent="sXWiS-W7BGuIx0ae2Dth-1" source="z8JawQCSkCAL8MrwTOAj-0" target="cyF7_fSVK60EGiFeBGHx-39">
          <mxGeometry relative="1" as="geometry">
            <Array as="points">
              <mxPoint x="-549.5" y="395" />
              <mxPoint x="-549.5" y="460" />
              <mxPoint x="-464.5" y="460" />
            </Array>
          </mxGeometry>
        </mxCell>
        <mxCell id="1UapbTaZws7WXqEb3hF3-5" value="Yes" style="edgeLabel;html=1;align=center;verticalAlign=middle;resizable=0;points=[];fontSize=11;" vertex="1" connectable="0" parent="z8JawQCSkCAL8MrwTOAj-1">
          <mxGeometry x="-0.9043" y="2" relative="1" as="geometry">
            <mxPoint x="-4" y="-2" as="offset" />
          </mxGeometry>
        </mxCell>
        <mxCell id="z8JawQCSkCAL8MrwTOAj-3" style="edgeStyle=orthogonalEdgeStyle;rounded=1;orthogonalLoop=1;jettySize=auto;html=1;exitX=1;exitY=0.5;exitDx=0;exitDy=0;fontSize=11;strokeColor=#A8201A;entryX=1;entryY=0.5;entryDx=0;entryDy=0;" edge="1" parent="sXWiS-W7BGuIx0ae2Dth-1" source="z8JawQCSkCAL8MrwTOAj-0" target="1UapbTaZws7WXqEb3hF3-0">
          <mxGeometry relative="1" as="geometry">
            <mxPoint x="-379.5" y="250" as="targetPoint" />
            <Array as="points">
              <mxPoint x="-380" y="395" />
              <mxPoint x="-380" y="275" />
            </Array>
          </mxGeometry>
        </mxCell>
        <mxCell id="1UapbTaZws7WXqEb3hF3-4" value="No" style="edgeLabel;html=1;align=center;verticalAlign=middle;resizable=0;points=[];fontSize=11;" vertex="1" connectable="0" parent="z8JawQCSkCAL8MrwTOAj-3">
          <mxGeometry x="-0.9147" y="2" relative="1" as="geometry">
            <mxPoint as="offset" />
          </mxGeometry>
        </mxCell>
        <mxCell id="z8JawQCSkCAL8MrwTOAj-0" value="Connected to server ?" style="rhombus;whiteSpace=wrap;html=1;rounded=0;sketch=0;fontColor=#143642;strokeColor=#0F8B8D;fillColor=#FAE5C7;" vertex="1" parent="sXWiS-W7BGuIx0ae2Dth-1">
          <mxGeometry x="-513.5" y="350" width="98" height="90" as="geometry" />
        </mxCell>
        <mxCell id="1UapbTaZws7WXqEb3hF3-3" style="edgeStyle=orthogonalEdgeStyle;rounded=1;orthogonalLoop=1;jettySize=auto;html=1;exitX=0.5;exitY=1;exitDx=0;exitDy=0;entryX=0.5;entryY=0;entryDx=0;entryDy=0;fontSize=11;strokeColor=#A8201A;" edge="1" parent="sXWiS-W7BGuIx0ae2Dth-1" source="1UapbTaZws7WXqEb3hF3-0" target="cyF7_fSVK60EGiFeBGHx-43">
          <mxGeometry relative="1" as="geometry" />
        </mxCell>
        <mxCell id="1UapbTaZws7WXqEb3hF3-0" value="" style="ellipse;whiteSpace=wrap;html=1;aspect=fixed;rounded=0;sketch=0;fontColor=#143642;strokeColor=#0F8B8D;fillColor=#FAE5C7;" vertex="1" parent="sXWiS-W7BGuIx0ae2Dth-1">
          <mxGeometry x="-474.5" y="265" width="20" height="20" as="geometry" />
        </mxCell>
        <mxCell id="wWmmxFUgnl3YdNKGQ0Va-0" value="end" style="ellipse;whiteSpace=wrap;html=1;fillColor=#FAE5C7;strokeColor=#0F8B8D;fontColor=#143642;fontStyle=1" vertex="1" parent="sXWiS-W7BGuIx0ae2Dth-1">
          <mxGeometry x="-668.75" y="240" width="48" height="30" as="geometry" />
        </mxCell>
      </root>
    </mxGraphModel>
  </diagram>
</mxfile>
